<?xml version="1.0" encoding="UTF-8"?><svg width="256" height="4096" viewBox="0 0 256 4096" xmlns="http://www.w3.org/2000/svg" xmlns:xlink="http://www.w3.org/1999/xlink"><svg width="256" height="256" viewBox="0 0 256 256" id="calendar"><title>calendar</title><path d="M36.216 228.371h37.64v-37.639h-37.64v37.64zm46.004 0h41.821v-37.639H82.22v37.64zm-46.004-46.003h37.64v-41.822h-37.64v41.822zm46.004 0h41.821v-41.822H82.22v41.822zm-46.004-50.186h37.64v-37.64h-37.64v37.64zm96.189 96.19h41.822v-37.64h-41.822v37.64zm-50.185-96.19h41.821v-37.64H82.22v37.64zm100.37 96.19h37.64v-37.64h-37.64v37.64zm-50.185-46.004h41.822v-41.822h-41.822v41.822zM86.4 69.45V31.81c0-1.132-.413-2.113-1.241-2.94-.828-.828-1.808-1.241-2.94-1.241h-8.365c-1.132 0-2.113.413-2.94 1.241-.828.828-1.241 1.808-1.241 2.94v37.64c0 1.132.413 2.113 1.241 2.94.828.827 1.808 1.241 2.94 1.241h8.365c1.132 0 2.113-.413 2.94-1.241.827-.828 1.241-1.808 1.241-2.94zm96.19 112.917h37.639v-41.822h-37.64v41.822zm-50.186-50.186h41.822v-37.64h-41.822v37.64zm50.186 0h37.639v-37.64h-37.64v37.64zm4.182-62.731V31.81c0-1.132-.414-2.113-1.242-2.94-.828-.828-1.808-1.241-2.94-1.241h-8.364c-1.133 0-2.114.413-2.94 1.241-.829.828-1.242 1.808-1.242 2.94v37.64c0 1.132.413 2.113 1.241 2.94.828.827 1.808 1.241 2.94 1.241h8.365c1.132 0 2.113-.413 2.94-1.241.827-.828 1.242-1.808 1.242-2.94zm50.186-8.365v167.285c0 4.531-1.656 8.451-4.967 11.762-3.31 3.311-7.231 4.967-11.762 4.967H36.216c-4.53 0-8.45-1.656-11.762-4.967-3.31-3.31-4.966-7.231-4.966-11.762V61.086c0-4.53 1.656-8.45 4.966-11.762 3.311-3.31 7.232-4.966 11.762-4.966h16.729V31.81c0-5.75 2.047-10.673 6.143-14.768 4.095-4.095 9.018-6.143 14.768-6.143h8.365c5.75 0 10.673 2.048 14.768 6.143 4.095 4.095 6.143 9.018 6.143 14.768v12.547h50.186V31.81c0-5.75 2.047-10.673 6.143-14.768 4.095-4.095 9.018-6.143 14.768-6.143h8.365c5.75 0 10.673 2.048 14.768 6.143 4.095 4.095 6.143 9.018 6.143 14.768v12.547h16.729c4.53 0 8.451 1.655 11.762 4.966 3.31 3.311 4.963 7.231 4.963 11.762z" fill="#000" fill-rule="nonzero"/></svg><svg width="256" height="256" viewBox="0 0 256 256" id="check-circle" y="256"><title>check-circle</title><path d="M207.162 102.722c0-2.857-.917-5.201-2.75-7.035l-13.925-13.77c-1.937-1.938-4.233-2.905-6.889-2.905-2.656 0-4.953.968-6.889 2.904l-62.431 62.277-34.584-34.583c-1.937-1.937-4.233-2.905-6.889-2.905-2.656 0-4.953.969-6.889 2.905l-13.924 13.77c-1.834 1.834-2.75 4.178-2.75 7.035 0 2.753.916 5.05 2.75 6.889l55.388 55.387c1.937 1.937 4.233 2.905 6.889 2.905 2.754 0 5.098-.969 7.035-2.905l83.082-83.081c1.834-1.835 2.75-4.13 2.75-6.89l.026.002zm38.559 24.788c0 21.319-5.253 40.981-15.758 58.987-10.506 18.005-24.76 32.26-42.766 42.766-18.006 10.505-37.668 15.758-58.986 15.758-21.319 0-40.981-5.253-58.987-15.758-18.005-10.506-32.26-24.76-42.766-42.766C15.953 168.49 10.7 148.829 10.7 127.51c0-21.318 5.253-40.98 15.758-58.986 10.506-18.005 24.76-32.26 42.766-42.766C87.23 15.253 106.892 10 128.211 10c21.318 0 40.98 5.253 58.986 15.758 18.005 10.506 32.261 24.76 42.766 42.766 10.505 18.006 15.758 37.668 15.758 58.986z" fill-rule="nonzero" fill="#000"/></svg><svg width="256" height="256" viewBox="0 0 256 256" id="chevron-down" y="512"><title>chevron-down</title><path d="M121.113 202.031L12.517 93.436c-1.853-1.854-2.78-4.05-2.78-6.587s.927-4.731 2.78-6.586l24.295-24.295c1.854-1.854 4.05-2.781 6.587-2.781s4.732.927 6.586 2.78l77.714 77.717 77.715-77.715c1.853-1.854 4.05-2.781 6.586-2.781 2.537 0 4.732.927 6.587 2.78l24.295 24.296c1.853 1.854 2.78 4.05 2.78 6.586 0 2.537-.927 4.732-2.78 6.587L134.285 202.03c-1.853 1.854-4.049 2.781-6.586 2.781s-4.732-.927-6.586-2.78z" fill-rule="nonzero" fill="#000"/></svg><svg width="256" height="256" viewBox="0 0 256 256" id="chevron-left" y="768"><title>chevron-left</title><path d="M200.656 51.384L123.04 129l77.616 77.616c1.852 1.852 2.777 4.045 2.777 6.578 0 2.533-.925 4.726-2.777 6.578l-24.264 24.264c-1.852 1.852-4.045 2.777-6.578 2.777-2.534 0-4.726-.925-6.577-2.777L54.776 135.578C52.927 133.726 52 131.534 52 129c0-2.534.925-4.726 2.777-6.578L163.236 13.964c1.851-1.852 4.044-2.777 6.577-2.777 2.534 0 4.726.925 6.578 2.777l24.264 24.264c1.852 1.852 2.777 4.045 2.777 6.578 0 2.533-.924 4.726-2.776 6.578z" fill="#000" fill-rule="nonzero"/></svg><svg width="256" height="256" viewBox="0 0 256 256" id="chevron-right" y="1024"><title>chevron-right</title><path d="M200.731 135.586L92.136 244.182c-1.854 1.853-4.05 2.78-6.587 2.78s-4.731-.927-6.586-2.78l-24.295-24.295c-1.854-1.854-2.781-4.05-2.781-6.587s.927-4.732 2.78-6.586L132.385 129 54.669 51.285c-1.854-1.853-2.781-4.05-2.781-6.586 0-2.537.927-4.732 2.78-6.587l24.296-24.295c1.854-1.853 4.05-2.78 6.586-2.78 2.537 0 4.732.927 6.587 2.78L200.73 122.414c1.854 1.853 2.781 4.049 2.781 6.586s-.927 4.732-2.78 6.586z" fill="#000" fill-rule="nonzero"/></svg><svg width="256" height="256" viewBox="0 0 256 256" id="chevron-up" y="1280"><title>chevron-up</title><path d="M134.286 55.968l108.596 108.595c1.853 1.854 2.78 4.05 2.78 6.587s-.927 4.731-2.78 6.586l-24.295 24.295c-1.854 1.854-4.05 2.781-6.587 2.781s-4.732-.927-6.586-2.78L127.7 124.314 49.985 202.03c-1.853 1.854-4.05 2.781-6.586 2.781-2.537 0-4.732-.927-6.587-2.78l-24.295-24.296c-1.853-1.854-2.78-4.05-2.78-6.586 0-2.537.927-4.732 2.78-6.587L121.114 55.968c1.853-1.854 4.049-2.781 6.586-2.781s4.732.927 6.586 2.78z" fill-rule="nonzero" fill="#000"/></svg><svg width="256" height="256" viewBox="0 0 256 256" id="circle-thin" y="1536"><title>circle-thin</title><path d="M128 30.669c-13.545 0-26.483 2.61-38.827 7.84-12.345 5.221-22.972 12.213-31.875 20.974-8.91 8.762-16.013 19.205-21.33 31.344-5.31 12.14-7.973 24.868-7.973 38.18 0 13.32 2.655 26.041 7.973 38.18 5.31 12.14 12.42 22.59 21.33 31.344 8.91 8.762 19.53 15.747 31.875 20.975 12.345 5.221 25.29 7.84 38.827 7.84 13.545 0 26.483-2.61 38.827-7.84 12.345-5.221 22.972-12.213 31.875-20.975 8.91-8.761 16.013-19.204 21.33-31.343 5.31-12.14 7.972-24.869 7.972-38.181 0-13.32-2.655-26.04-7.972-38.18-5.31-12.14-12.42-22.59-21.33-31.344-8.91-8.761-19.53-15.746-31.875-20.974-12.344-5.222-25.289-7.84-38.827-7.84zM248 129c0 21.41-5.363 41.153-16.095 59.228-10.732 18.076-25.29 32.391-43.672 42.945C169.851 241.727 149.772 247 128 247s-41.85-5.274-60.232-15.827c-18.382-10.553-32.94-24.868-43.673-42.945C13.362 170.152 8 150.41 8 129c0-21.41 5.363-41.153 16.095-59.23 10.732-18.076 25.29-32.39 43.673-42.943C86.151 16.274 106.228 11 128 11s41.85 5.273 60.233 15.827c18.383 10.554 32.94 24.868 43.672 42.944C242.637 87.847 248 107.59 248 129z" fill="#000" fill-rule="nonzero"/></svg><svg width="256" height="256" viewBox="0 0 256 256" id="contrast" y="1792"><title>contrast</title><path d="M128 10c65.173 0 118 52.827 118 118s-52.827 118-118 118S10 193.173 10 128 62.827 10 128 10zM39.5 128c0 48.874 39.626 88.5 88.5 88.5v-177c-48.874 0-88.5 39.626-88.5 88.5z" fill="#000" fill-rule="nonzero"/></svg><svg width="256" height="256" viewBox="0 0 256 256" id="facebook" y="2048"><title>facebook</title><path d="M186.538 11.702v37.442h-22.266c-8.132 0-13.616 1.702-16.452 5.106-2.837 3.404-4.255 8.51-4.255 15.317v26.806h41.555l-5.531 41.98h-36.024V246h-43.4V138.353H64v-41.98h36.166V65.454c0-17.586 4.917-31.225 14.75-40.917C124.749 14.846 137.845 10 154.202 10c13.899 0 24.678.567 32.336 1.702z" fill="#000" fill-rule="nonzero"/></svg><svg width="256" height="256" viewBox="0 0 256 256" id="github" y="2304"><title>github</title><path d="M245.02 130.453c0 26.245-7.471 49.849-22.415 70.814-14.945 20.965-34.249 35.472-57.914 43.523-2.754.523-4.77.156-6.044-1.098-1.275-1.255-1.913-2.823-1.913-4.705v-33.093c0-10.142-2.652-17.566-7.956-22.271 5.815-.628 11.042-1.57 15.684-2.824 4.641-1.254 9.435-3.293 14.383-6.116 4.947-2.823 9.078-6.3 12.393-10.43 3.315-4.13 6.019-9.62 8.11-16.468 2.09-6.85 3.136-14.717 3.136-23.605 0-12.652-4.03-23.422-12.088-32.31 3.774-9.515 3.367-20.18-1.224-31.995-2.856-.94-6.987-.366-12.393 1.726-5.407 2.091-10.099 4.39-14.076 6.9l-5.815 3.765c-9.487-2.719-19.28-4.078-29.378-4.078-10.098 0-19.89 1.36-29.377 4.078-1.633-1.15-3.8-2.562-6.503-4.234-2.704-1.673-6.962-3.686-12.777-6.039-5.815-2.352-10.2-3.058-13.159-2.117-4.488 11.816-4.845 22.481-1.071 31.995-8.059 8.888-12.088 19.658-12.088 32.31 0 8.888 1.046 16.73 3.136 23.525 2.091 6.797 4.77 12.286 8.033 16.469 3.264 4.182 7.37 7.685 12.317 10.508 4.947 2.823 9.742 4.862 14.384 6.116 4.641 1.255 9.868 2.196 15.683 2.824-4.08 3.764-6.58 9.149-7.497 16.154a29.787 29.787 0 0 1-6.885 2.352c-2.448.522-5.356.785-8.721.785-3.366 0-6.707-1.124-10.022-3.372-3.315-2.248-6.146-5.515-8.492-9.802-1.938-3.346-4.412-6.065-7.42-8.155-3.01-2.092-5.535-3.346-7.574-3.765l-3.06-.47c-2.143 0-3.622.235-4.438.706-.815.47-1.07 1.072-.764 1.804.305.732.764 1.464 1.377 2.196.612.731 1.274 1.359 1.988 1.882l1.072.784c2.244 1.046 4.462 3.032 6.656 5.96 2.193 2.928 3.8 5.593 4.82 7.999l1.53 3.607c1.325 3.973 3.57 7.189 6.731 9.646 3.163 2.457 6.58 4.025 10.252 4.705 3.672.68 7.217 1.046 10.634 1.098 3.417.052 6.248-.13 8.492-.55l3.52-.627c0 3.973.025 8.626.076 13.959.05 5.333.076 8.155.076 8.47 0 1.882-.663 3.45-1.989 4.705-1.325 1.254-3.366 1.62-6.12 1.098-23.666-8.052-42.97-22.56-57.914-43.523C17.472 180.305 10 156.698 10 130.453c0-21.853 5.254-42.007 15.76-60.462 10.507-18.455 24.761-33.066 42.766-43.836C86.531 15.385 106.191 10 127.51 10c21.32 0 40.981 5.385 58.985 16.155 18.003 10.77 32.26 25.382 42.766 43.837 10.506 18.455 15.76 38.608 15.76 60.461z" fill="#000" fill-rule="nonzero"/></svg><svg width="256" height="256" viewBox="0 0 256 256" id="instagram" y="2560"><title>instagram</title><path d="M219.266 209.432V109.87h-20.743c2.049 6.453 3.073 13.162 3.073 20.127 0 12.907-3.277 24.814-9.833 35.723-6.556 10.909-15.467 19.539-26.734 25.89-11.268 6.35-23.56 9.525-36.875 9.525-20.18 0-37.439-6.94-51.779-20.819-14.34-13.879-21.51-30.652-21.51-50.319 0-6.965 1.024-13.674 3.072-20.127H36.273v99.562c0 2.663.897 4.891 2.69 6.684 1.792 1.792 4.02 2.689 6.683 2.689h164.247c2.561 0 4.763-.897 6.607-2.69 1.844-1.792 2.766-4.02 2.766-6.683zM175.63 127.54c0-12.701-4.635-23.533-13.905-32.496-9.27-8.963-20.46-13.444-33.571-13.444-13.009 0-24.148 4.481-33.418 13.444-9.27 8.963-13.905 19.795-13.905 32.496s4.635 23.533 13.905 32.496c9.27 8.963 20.409 13.444 33.418 13.444 13.11 0 24.301-4.481 33.571-13.444 9.27-8.963 13.905-19.795 13.905-32.496zm43.636-55.312V46.875c0-2.868-1.025-5.352-3.073-7.452-2.049-2.1-4.558-3.15-7.529-3.15H181.93c-2.97 0-5.48 1.05-7.529 3.15-2.049 2.1-3.073 4.584-3.073 7.452v25.352c0 2.97 1.024 5.48 3.073 7.528 2.049 2.049 4.558 3.073 7.529 3.073h26.734c2.97 0 5.48-1.024 7.529-3.073 2.048-2.048 3.073-4.558 3.073-7.528zM246 40.268v175.464c0 8.297-2.97 15.416-8.911 21.357-5.941 5.94-13.06 8.911-21.357 8.911H40.268c-8.297 0-15.416-2.97-21.357-8.911-5.94-5.941-8.911-13.06-8.911-21.357V40.268c0-8.297 2.97-15.416 8.911-21.357C24.852 12.971 31.971 10 40.268 10h175.464c8.297 0 15.416 2.97 21.357 8.911 5.94 5.941 8.911 13.06 8.911 21.357z" fill="#000" fill-rule="nonzero"/></svg><svg width="256" height="256" viewBox="0 0 256 256" id="menu" y="2816"><title>menu</title><path d="M246 197.167v19.666c0 2.664-.973 4.968-2.92 6.914-1.945 1.947-4.25 2.92-6.913 2.92H19.833c-2.663 0-4.968-.973-6.914-2.92-1.946-1.946-2.919-4.25-2.919-6.914v-19.666c0-2.664.973-4.968 2.92-6.914 1.945-1.947 4.25-2.92 6.913-2.92h216.334c2.663 0 4.968.973 6.914 2.92 1.946 1.946 2.919 4.25 2.919 6.914zm0-78.667v19.667c0 2.663-.973 4.968-2.92 6.914-1.945 1.946-4.25 2.919-6.913 2.919H19.833c-2.663 0-4.968-.973-6.914-2.92-1.946-1.945-2.919-4.25-2.919-6.913V118.5c0-2.663.973-4.968 2.92-6.914 1.945-1.946 4.25-2.92 6.913-2.92h216.334c2.663 0 4.968.974 6.914 2.92 1.946 1.946 2.919 4.25 2.919 6.914zm0-78.667V59.5c0 2.663-.973 4.968-2.92 6.914-1.945 1.946-4.25 2.92-6.913 2.92H19.833c-2.663 0-4.968-.974-6.914-2.92C10.973 64.468 10 62.164 10 59.5V39.833c0-2.663.973-4.968 2.92-6.914C14.864 30.973 17.17 30 19.832 30h216.334c2.663 0 4.968.973 6.914 2.92 1.946 1.945 2.919 4.25 2.919 6.913z" fill-rule="nonzero" fill="#000"/></svg><svg width="256" height="256" viewBox="0 0 256 256" id="search" y="3072"><title>search</title><path d="M240.698 209.667l-56.442-56.442c8.514-13.994 13.415-30.396 13.415-47.975 0-51.028-44.231-95.25-95.268-95.25C51.375 10 10 51.375 10 102.403c0 51.037 44.213 95.268 95.25 95.268a91.88 91.88 0 0 0 46.528-12.594l56.74 56.76c5.574 5.555 14.564 5.555 20.11 0l14.087-14.068c5.545-5.555 3.528-12.547-2.017-18.093v-.009zM38.436 102.393c0-35.325 28.632-63.976 63.957-63.976 35.344 0 66.823 31.489 66.823 66.823 0 35.335-28.631 63.976-63.976 63.976-35.344 0-66.813-31.488-66.813-66.823h.009z" fill-rule="nonzero" fill="#000"/></svg><svg width="256" height="256" viewBox="0 0 256 256" id="twitter" y="3328"><title>twitter</title><path d="M246 54.761c-6.689 9.784-14.775 18.12-24.259 25.008.1 1.398.15 3.494.15 6.29 0 12.977-1.897 25.93-5.69 38.859-3.794 12.928-9.56 25.332-17.296 37.211-7.737 11.88-16.946 22.387-27.628 31.522-10.682 9.135-23.56 16.422-38.635 21.863-15.074 5.44-31.197 8.161-48.368 8.161-27.054 0-51.812-7.238-74.274-21.713 3.494.4 7.387.599 11.68.599 22.462 0 42.478-6.888 60.048-20.665-10.482-.2-19.866-3.42-28.152-9.659-8.286-6.24-13.976-14.2-17.07-23.884 3.293.499 6.338.749 9.134.749 4.292 0 8.535-.55 12.728-1.648-11.181-2.296-20.44-7.861-27.778-16.696-7.337-8.835-11.006-19.093-11.006-30.773v-.6c6.788 3.794 14.076 5.84 21.863 6.14-6.59-4.392-11.83-10.132-15.724-17.22-3.893-7.088-5.84-14.775-5.84-23.061 0-8.785 2.197-16.922 6.59-24.409 12.079 14.875 26.779 26.78 44.1 35.714 17.32 8.935 35.864 13.902 55.63 14.9-.799-3.793-1.198-7.487-1.198-11.081 0-13.377 4.717-24.783 14.151-34.217C148.59 36.717 159.996 32 173.373 32c13.976 0 25.756 5.091 35.34 15.274 10.882-2.096 21.114-5.99 30.698-11.68-3.694 11.48-10.782 20.365-21.264 26.655 9.284-.999 18.569-3.494 27.853-7.488z" fill="#000" fill-rule="nonzero"/></svg><svg width="256" height="256" viewBox="0 0 256 256" id="usd" y="3584"><title>usd</title><path d="M189.745 166.06c0 13.433-4.363 25-13.09 34.702-8.726 9.702-20.062 15.694-34.007 17.977v23.047c0 1.229-.394 2.239-1.184 3.029-.789.79-1.798 1.185-3.025 1.185h-17.76c-1.14 0-2.127-.417-2.96-1.251-.834-.834-1.25-1.822-1.25-2.963v-23.047a82.844 82.844 0 0 1-16.773-4.083c-5.394-1.931-9.845-3.885-13.353-5.86-3.508-1.976-6.753-4.083-9.735-6.322-2.982-2.239-5.021-3.885-6.118-4.938-1.096-1.054-1.863-1.844-2.302-2.37-1.49-1.845-1.579-3.644-.263-5.4l13.55-17.78c.614-.877 1.623-1.404 3.026-1.58 1.315-.175 2.368.22 3.157 1.186l.263.263c9.91 8.692 20.567 14.18 31.968 16.462a45.898 45.898 0 0 0 9.735 1.054c7.104 0 13.353-1.888 18.747-5.663 5.394-3.776 8.09-9.131 8.09-16.067 0-2.459-.657-4.785-1.973-6.98-1.315-2.195-2.784-4.039-4.407-5.532-1.622-1.492-4.188-3.138-7.696-4.938-3.508-1.8-6.402-3.205-8.682-4.214-2.28-1.01-5.789-2.437-10.525-4.28-3.42-1.405-6.117-2.503-8.09-3.293-1.974-.79-4.67-1.953-8.091-3.49-3.42-1.536-6.161-2.897-8.222-4.083-2.061-1.185-4.539-2.743-7.433-4.675-2.894-1.931-5.24-3.797-7.038-5.597-1.798-1.8-3.706-3.95-5.723-6.453-2.017-2.502-3.574-5.048-4.67-7.638-1.097-2.59-2.017-5.51-2.763-8.758-.745-3.249-1.118-6.673-1.118-10.272 0-12.117 4.297-22.74 12.892-31.871 8.595-9.131 19.777-15.013 33.547-17.647V14.214c0-1.141.416-2.129 1.25-2.963.833-.834 1.82-1.251 2.96-1.251h17.76c1.227 0 2.236.395 3.025 1.185.79.79 1.184 1.8 1.184 3.03v23.178c5 .527 9.845 1.536 14.537 3.029 4.692 1.492 8.507 2.963 11.445 4.412a63.34 63.34 0 0 1 8.354 4.938c2.631 1.844 4.341 3.117 5.13 3.82.79.702 1.448 1.316 1.974 1.843 1.491 1.58 1.71 3.249.658 5.005L174.09 79.667c-.702 1.317-1.71 2.02-3.026 2.108-1.228.263-2.412-.044-3.552-.922-.263-.264-.899-.79-1.907-1.58-1.009-.79-2.72-1.954-5.131-3.49a67.87 67.87 0 0 0-7.696-4.215c-2.719-1.273-5.986-2.414-9.8-3.424-3.816-1.01-7.565-1.515-11.249-1.515-8.332 0-15.129 1.888-20.39 5.663-5.263 3.776-7.894 8.648-7.894 14.619 0 2.282.373 4.39 1.118 6.321.746 1.932 2.04 3.753 3.881 5.466 1.842 1.712 3.574 3.16 5.196 4.346 1.623 1.185 4.079 2.546 7.367 4.082 3.29 1.537 5.942 2.722 7.96 3.556 2.017.834 5.086 2.041 9.208 3.622 4.649 1.756 8.2 3.138 10.656 4.148 2.456 1.01 5.789 2.546 9.999 4.61 4.21 2.063 7.52 3.928 9.932 5.596 2.412 1.669 5.13 3.864 8.156 6.585 3.026 2.722 5.35 5.51 6.973 8.363 1.622 2.853 3.004 6.212 4.144 10.075 1.14 3.863 1.71 7.99 1.71 12.38z" fill-rule="nonzero" fill="#000"/></svg><svg width="256" height="256" viewBox="0 0 256 256" id="youtube" y="3840"><title>youtube</title><path d="M178.571 128.286c0-3.249-1.317-5.62-3.95-7.112l-67.429-42.143c-2.722-1.756-5.575-1.844-8.56-.263-2.898 1.58-4.346 4.039-4.346 7.375v84.286c0 3.336 1.448 5.794 4.346 7.375 1.404.702 2.765 1.053 4.082 1.053 1.756 0 3.249-.439 4.478-1.317l67.429-42.143c2.633-1.492 3.95-3.863 3.95-7.111zm67.429 0c0 8.428-.044 15.013-.132 19.754-.087 4.741-.46 10.733-1.12 17.977-.658 7.243-1.645 13.718-2.962 19.425-1.405 6.41-4.434 11.809-9.087 16.199-4.654 4.39-10.097 6.936-16.33 7.638-19.492 2.195-48.948 3.292-88.369 3.292s-68.877-1.097-88.368-3.292c-6.234-.702-11.7-3.248-16.397-7.638-4.697-4.39-7.748-9.79-9.152-16.199-1.23-5.707-2.173-12.182-2.832-19.425-.658-7.244-1.032-13.236-1.12-17.977-.087-4.74-.131-11.326-.131-19.754 0-8.429.044-15.014.132-19.755.087-4.74.46-10.733 1.12-17.976.658-7.244 1.645-13.719 2.962-19.426 1.405-6.409 4.434-11.808 9.087-16.198 4.654-4.39 10.097-6.936 16.33-7.639C59.124 45.097 88.58 44 128 44s68.877 1.097 88.368 3.292c6.234.703 11.7 3.249 16.397 7.639 4.697 4.39 7.748 9.79 9.152 16.198 1.23 5.707 2.173 12.182 2.832 19.426.658 7.243 1.032 13.235 1.12 17.976.087 4.741.131 11.326.131 19.755z" fill="#000" fill-rule="nonzero"/></svg></svg>