<?xml version="1.0" encoding="UTF-8"?>
<svg width="256" height="256" viewBox="0 0 256 256" version="1.1" xmlns="http://www.w3.org/2000/svg" xmlns:xlink="http://www.w3.org/1999/xlink">
<svg id="calendar" width="256" height="256" viewbox="0 0 256 256">
  <g>
    <path d="M36.2162975,228.37119 L73.8553719,228.37119 L73.8553719,190.732116 L36.2162975,190.732116 L36.2162975,228.37119 Z M82.219719,228.37119 L124.041455,228.37119 L124.041455,190.732116 L82.219719,190.732116 L82.219719,228.37119 Z M36.2162975,182.367769 L73.8553719,182.367769 L73.8553719,140.546033 L36.2162975,140.546033 L36.2162975,182.367769 Z M82.219719,182.367769 L124.041455,182.367769 L124.041455,140.546033 L82.219719,140.546033 L82.219719,182.367769 Z M36.2162975,132.181686 L73.8553719,132.181686 L73.8553719,94.5426116 L36.2162975,94.5426116 L36.2162975,132.181686 Z M132.404826,228.37119 L174.226562,228.37119 L174.226562,190.732116 L132.404826,190.732116 L132.404826,228.37119 Z M82.219719,132.181686 L124.041455,132.181686 L124.041455,94.5426116 L82.219719,94.5426116 L82.219719,132.181686 Z M182.590909,228.37119 L220.229983,228.37119 L220.229983,190.732116 L182.590909,190.732116 L182.590909,228.37119 Z M132.404826,182.367769 L174.226562,182.367769 L174.226562,140.546033 L132.404826,140.546033 L132.404826,182.367769 Z M86.401405,69.4505455 L86.401405,31.8114711 C86.401405,30.6792562 85.9879174,29.6981983 85.1599669,28.8712231 C84.3320165,28.0432727 83.3519339,27.6297851 82.219719,27.6297851 L73.8553719,27.6297851 C72.723157,27.6297851 71.7420992,28.0432727 70.915124,28.8712231 C70.0871736,29.6991736 69.673686,30.6792562 69.673686,31.8114711 L69.673686,69.4505455 C69.673686,70.5827603 70.0871736,71.5638182 70.915124,72.3907934 C71.7430744,73.2177686 72.723157,73.6322314 73.8553719,73.6322314 L82.219719,73.6322314 C83.3519339,73.6322314 84.3329917,73.2187438 85.1599669,72.3907934 C85.9869421,71.562843 86.401405,70.5827603 86.401405,69.4505455 Z M182.590909,182.367769 L220.229983,182.367769 L220.229983,140.546033 L182.590909,140.546033 L182.590909,182.367769 Z M132.404826,132.181686 L174.226562,132.181686 L174.226562,94.5426116 L132.404826,94.5426116 L132.404826,132.181686 Z M182.590909,132.181686 L220.229983,132.181686 L220.229983,94.5426116 L182.590909,94.5426116 L182.590909,132.181686 Z M186.772595,69.4505455 L186.772595,31.8114711 C186.772595,30.6792562 186.359107,29.6981983 185.531157,28.8712231 C184.703207,28.0432727 183.723124,27.6297851 182.590909,27.6297851 L174.226562,27.6297851 C173.094347,27.6297851 172.113289,28.0432727 171.286314,28.8712231 C170.458364,29.6991736 170.044876,30.6792562 170.044876,31.8114711 L170.044876,69.4505455 C170.044876,70.5827603 170.458364,71.5638182 171.286314,72.3907934 C172.114264,73.2177686 173.094347,73.6322314 174.226562,73.6322314 L182.590909,73.6322314 C183.723124,73.6322314 184.704182,73.2187438 185.531157,72.3907934 C186.358132,71.562843 186.772595,70.5827603 186.772595,69.4505455 Z M236.958678,61.0861983 L236.958678,228.37119 C236.958678,232.902 235.302777,236.822331 231.99195,240.133157 C228.681124,243.443983 224.760793,245.099884 220.229983,245.099884 L36.2162975,245.099884 C31.6854876,245.099884 27.765157,243.443983 24.4543306,240.133157 C21.1435041,236.822331 19.4876033,232.902 19.4876033,228.37119 L19.4876033,61.0861983 C19.4876033,56.5553884 21.1435041,52.6350579 24.4543306,49.3242314 C27.765157,46.013405 31.6864628,44.3575041 36.2162975,44.3575041 L52.9449917,44.3575041 L52.9449917,31.8114711 C52.9449917,26.0606777 54.9919504,21.1378347 59.0878182,17.0429421 C63.1827107,12.9480496 68.1055537,10.9001157 73.8563471,10.9001157 L82.2206942,10.9001157 C87.9714876,10.9001157 92.8943306,12.9480496 96.9892231,17.0429421 C101.084116,21.1378347 103.13205,26.0606777 103.13205,31.8114711 L103.13205,44.3575041 L153.318132,44.3575041 L153.318132,31.8114711 C153.318132,26.0606777 155.365091,21.1378347 159.460959,17.0429421 C163.555851,12.9480496 168.478694,10.9001157 174.229488,10.9001157 L182.593835,10.9001157 C188.344628,10.9001157 193.267471,12.9480496 197.362364,17.0429421 C201.457256,21.1378347 203.50519,26.0606777 203.50519,31.8114711 L203.50519,44.3575041 L220.233884,44.3575041 C224.764694,44.3575041 228.685025,46.013405 231.995851,49.3242314 C235.306678,52.6350579 236.958678,56.5553884 236.958678,61.0861983 Z"/>
  </g>
</svg>


<svg id="check-circle" width="256" height="256" viewbox="0 0 256 256">
  <g>
    <path d="M207.161842,102.72156 C207.161842,99.8650788 206.245261,97.5207469 204.41112,95.6866058 L190.48712,81.9163485 C188.550158,79.9793859 186.253809,79.0118838 183.598075,79.0118838 C180.94234,79.0118838 178.645012,79.9803651 176.709029,81.9163485 L114.277726,144.192929 L79.6944232,109.609627 C77.7574606,107.672664 75.461112,106.705162 72.8053776,106.705162 C70.1486639,106.705162 67.8523154,107.673643 65.916332,109.609627 L51.992332,123.379884 C50.1581909,125.214025 49.24161,127.558357 49.24161,130.414838 C49.24161,133.168498 50.1581909,135.464846 51.992332,137.303884 L107.379867,192.691419 C109.31683,194.628382 111.613178,195.595884 114.268913,195.595884 C117.022573,195.595884 119.366905,194.627402 121.303867,192.691419 L204.38566,109.609627 C206.219801,107.775485 207.136382,105.479137 207.136382,102.720581 L207.161842,102.72156 Z M245.720913,127.510373 C245.720913,148.828714 240.468199,168.491137 229.962772,186.496664 C219.457344,204.502191 205.202357,218.757178 187.19683,229.262606 C169.191303,239.768033 149.52888,245.020747 128.210539,245.020747 C106.892199,245.020747 87.2297759,239.768033 69.224249,229.262606 C51.218722,218.757178 36.9637344,204.502191 26.4583071,186.496664 C15.9528797,168.491137 10.700166,148.828714 10.700166,127.510373 C10.700166,106.192033 15.9528797,86.52961 26.4583071,68.524083 C36.9637344,50.518556 51.218722,36.2635685 69.224249,25.7581411 C87.2297759,15.2527137 106.892199,10 128.210539,10 C149.52888,10 169.191303,15.2527137 187.19683,25.7581411 C205.202357,36.2635685 219.458324,50.518556 229.962772,68.524083 C240.468199,86.52961 245.720913,106.192033 245.720913,127.510373 Z" id="Shape"/>
  </g>
</svg>


<svg id="chevron-down" width="256" height="256" viewbox="0 0 256 256">
  <g>
    <path d="M200.731183,135.586367 L92.1357833,244.181767 C90.2822,246.03535 88.0864167,246.962633 85.5494167,246.962633 C83.0124167,246.962633 80.8176167,246.03535 78.96305,244.181767 L54.6678333,219.88655 C52.81425,218.032967 51.8869667,215.837183 51.8869667,213.300183 C51.8869667,210.763183 52.81425,208.568383 54.6678333,206.713817 L132.383617,129 L54.6688167,51.2852 C52.8152333,49.4316167 51.88795,47.2358333 51.88795,44.6988333 C51.88795,42.1618333 52.8152333,39.9670333 54.6688167,38.1124667 L78.9640333,13.81725 C80.8176167,11.9636667 83.0134,11.0363833 85.5504,11.0363833 C88.0874,11.0363833 90.2822,11.9636667 92.1367667,13.81725 L200.731183,122.413633 C202.584767,124.267217 203.51205,126.463 203.51205,129 C203.51205,131.537 202.584767,133.7318 200.731183,135.586367 Z" id="chevron-down" transform="translate(127.699508, 128.999508) rotate(90.000000) translate(-127.699508, -128.999508) "/>
  </g>
</svg>


<svg id="chevron-left" width="256" height="256" viewbox="0 0 256 256">
  <g>
    <path d="M200.6564,51.3835333 L123.03895,129 L200.655417,206.616467 C202.507033,208.468083 203.43235,210.660917 203.43235,213.193983 C203.43235,215.72705 202.507033,217.919883 200.655417,219.7715 L176.390683,244.036233 C174.539067,245.88785 172.346233,246.813167 169.813167,246.813167 C167.279117,246.813167 165.087267,245.88785 163.23565,244.036233 L54.7769333,135.577517 C52.9253167,133.7259 52,131.53405 52,129 C52,126.46595 52.9253167,124.2741 54.7769333,122.422483 L163.23565,13.9637667 C165.087267,12.11215 167.2801,11.1868333 169.813167,11.1868333 C172.347217,11.1868333 174.539067,12.11215 176.390683,13.9637667 L200.655417,38.2285 C202.507033,40.0801167 203.43235,42.27295 203.43235,44.8060167 C203.43235,47.3390833 202.508017,49.5319167 200.6564,51.3835333 Z"/>
  </g>
</svg>


<svg id="chevron-right" width="256" height="256" viewbox="0 0 256 256">
  <g>
    <path d="M200.731183,135.586367 L92.1357833,244.181767 C90.2822,246.03535 88.0864167,246.962633 85.5494167,246.962633 C83.0124167,246.962633 80.8176167,246.03535 78.96305,244.181767 L54.6678333,219.88655 C52.81425,218.032967 51.8869667,215.837183 51.8869667,213.300183 C51.8869667,210.763183 52.81425,208.568383 54.6678333,206.713817 L132.383617,129 L54.6688167,51.2852 C52.8152333,49.4316167 51.88795,47.2358333 51.88795,44.6988333 C51.88795,42.1618333 52.8152333,39.9670333 54.6688167,38.1124667 L78.9640333,13.81725 C80.8176167,11.9636667 83.0134,11.0363833 85.5504,11.0363833 C88.0874,11.0363833 90.2822,11.9636667 92.1367667,13.81725 L200.731183,122.413633 C202.584767,124.267217 203.51205,126.463 203.51205,129 C203.51205,131.537 202.584767,133.7318 200.731183,135.586367 Z"/>
  </g>
</svg>


<svg id="chevron-up" width="256" height="256" viewbox="0 0 256 256">
  <g>
    <path d="M200.731183,135.586367 L92.1357833,244.181767 C90.2822,246.03535 88.0864167,246.962633 85.5494167,246.962633 C83.0124167,246.962633 80.8176167,246.03535 78.96305,244.181767 L54.6678333,219.88655 C52.81425,218.032967 51.8869667,215.837183 51.8869667,213.300183 C51.8869667,210.763183 52.81425,208.568383 54.6678333,206.713817 L132.383617,129 L54.6688167,51.2852 C52.8152333,49.4316167 51.88795,47.2358333 51.88795,44.6988333 C51.88795,42.1618333 52.8152333,39.9670333 54.6688167,38.1124667 L78.9640333,13.81725 C80.8176167,11.9636667 83.0134,11.0363833 85.5504,11.0363833 C88.0874,11.0363833 90.2822,11.9636667 92.1367667,13.81725 L200.731183,122.413633 C202.584767,124.267217 203.51205,126.463 203.51205,129 C203.51205,131.537 202.584767,133.7318 200.731183,135.586367 Z" id="chevron-right" transform="translate(127.699508, 128.999508) rotate(-90.000000) translate(-127.699508, -128.999508) "/>
  </g>
</svg>


<svg id="circle-thin" width="256" height="256" viewbox="0 0 256 256">
  <g>
    <path d="M128,30.6686333 C114.455,30.6686333 101.517,33.2793833 89.173,38.50875 C76.828,43.73025 66.201,50.72175 57.298,59.48325 C48.388,68.24475 41.285,78.68775 35.968,90.827 C30.658,102.96625 27.995,115.6955 27.995,129.006883 C27.995,142.326133 30.65,155.0485 35.968,167.18775 C41.278,179.327 48.388,189.776883 57.298,198.5315 C66.208,207.293 76.828,214.277617 89.173,219.506 C101.518,224.7275 114.463,227.346117 128,227.346117 C141.545,227.346117 154.483,224.735367 166.827,219.506 C179.172,214.2845 189.799,207.293 198.702,198.5315 C207.612,189.77 214.715,179.327 220.032,167.18775 C225.342,155.0485 228.004,142.31925 228.004,129.006883 C228.004,115.687633 225.349,102.96625 220.032,90.827 C214.722,78.68775 207.612,68.2378667 198.702,59.48325 C189.792,50.72175 179.172,43.7371333 166.827,38.50875 C154.483,33.28725 141.538,30.6686333 128,30.6686333 Z M248,129 C248,150.409133 242.637,170.1525 231.905,188.228133 C221.173,206.303767 206.615,220.619133 188.233,231.17325 C169.851,241.727367 149.772,247 128,247 C106.228,247 86.15,241.726383 67.768,231.17325 C49.386,220.620117 34.828,206.30475 24.095,188.228133 C13.362,170.151517 8,150.409133 8,129 C8,107.590867 13.363,87.8475 24.095,69.7708833 C34.827,51.6942667 49.385,37.3798833 67.768,26.82675 C86.151,16.2736167 106.228,11 128,11 C149.772,11 169.85,16.2726333 188.233,26.82675 C206.616,37.3808667 221.173,51.69525 231.905,69.7708833 C242.637,87.8465167 248,107.590867 248,129 Z"/>
  </g>
</svg>


<svg id="contrast" width="256" height="256" viewbox="0 0 256 256">
  <g>
    <path d="M128,10 C193.172875,10 246,62.827125 246,128 C246,193.172875 193.172875,246 128,246 C62.827125,246 10,193.172875 10,128 C10,62.827125 62.827125,10 128,10 Z M39.5,128 C39.5,176.874125 79.125875,216.5 128,216.5 L128,39.5 C79.125875,39.5 39.5,79.125875 39.5,128 Z"/>
  </g>
</svg>


<svg id="facebook" width="256" height="256" viewbox="0 0 256 256">
  <g>
    <path d="M186.538462,11.7019231 L186.538462,49.1442308 L164.271635,49.1442308 C156.140224,49.1442308 150.65625,50.8461538 147.819712,54.25 C144.983173,57.6538462 143.564904,62.7596154 143.564904,69.5673077 L143.564904,96.3725962 L185.120192,96.3725962 L179.588942,138.353365 L143.564904,138.353365 L143.564904,246 L100.165865,246 L100.165865,138.353365 L64,138.353365 L64,96.3725962 L100.165865,96.3725962 L100.165865,65.4543269 C100.165865,47.8677885 105.082532,34.228766 114.915865,24.5372596 C124.749199,14.8457532 137.844551,10 154.201923,10 C168.100962,10 178.879808,10.5673077 186.538462,11.7019231 Z"/>
  </g>
</svg>


<svg id="github" width="256" height="256" viewbox="0 0 256 256">
  <g>
    <path d="M245.020747,130.453029 C245.020747,156.697992 237.549046,180.301909 222.604664,201.266739 C207.660282,222.231568 188.356266,236.739203 164.690656,244.789643 C161.936996,245.312564 159.921693,244.946324 158.646705,243.6919 C157.371718,242.437477 156.734224,240.868714 156.734224,238.986589 L156.734224,205.89371 C156.734224,195.751585 154.082407,188.327867 148.777793,183.622556 C154.592598,182.994855 159.819851,182.053793 164.46151,180.799369 C169.10317,179.544946 173.896614,177.506141 178.84478,174.682954 C183.791967,171.859768 187.923436,168.383419 191.238207,164.252929 C194.552979,160.12244 197.256697,154.633726 199.347402,147.78483 C201.438108,140.935934 202.48395,133.067635 202.48395,124.179934 C202.48395,111.527983 198.454324,100.758158 190.39605,91.8704564 C194.170091,82.3550539 193.762722,71.6900083 189.171983,59.8753195 C186.315502,58.9342573 182.185012,59.5090788 176.778556,61.6007635 C171.3721,63.6924481 166.680498,65.9917344 162.702772,68.5015602 L156.887967,72.2658091 C147.400963,69.5474025 137.608432,68.1881992 127.510373,68.1881992 C117.412315,68.1881992 107.619784,69.5474025 98.1327801,72.2658091 C96.5003651,71.1151867 94.333278,69.704083 91.6295602,68.0315187 C88.9258423,66.3589544 84.6680498,64.34561 78.8532448,61.993444 C73.0384398,59.641278 68.6523651,58.9352365 65.6940415,59.8762988 C61.2061245,71.6919668 60.8486971,82.3570124 64.6227386,91.8714357 C56.5644647,100.759137 52.5348382,111.528963 52.5348382,124.180913 C52.5348382,133.068614 53.5806805,140.910473 55.6713859,147.70649 C57.7620913,154.502506 60.4403485,159.992199 63.7041992,164.174589 C66.9680498,168.356979 71.0740581,171.859768 76.0212448,174.682954 C80.9684315,177.506141 85.7628548,179.544946 90.4045145,180.799369 C95.0461743,182.053793 100.273427,182.994855 106.088232,183.622556 C102.007685,187.386805 99.5086307,192.771718 98.5910705,199.777295 C96.4484647,200.823137 94.1540747,201.607519 91.7059419,202.129461 C89.2578091,202.651402 86.3504066,202.913842 82.9847137,202.913842 C79.6190207,202.913842 76.2778091,201.78966 72.9630373,199.542274 C69.6482656,197.293909 66.8172448,194.02712 64.4709544,189.73995 C62.5330124,186.393842 60.0594191,183.675436 57.0501743,181.58473 C54.0409295,179.493046 51.5164149,178.238622 49.4766307,177.820481 L46.4164647,177.35044 C44.2738589,177.35044 42.7951867,177.585461 41.9794689,178.056481 C41.163751,178.526523 40.908166,179.127784 41.2146722,179.860266 C41.5201992,180.591768 41.9794689,181.324249 42.5915021,182.055751 C43.2035353,182.787253 43.8664896,183.414954 44.5803651,183.937876 L45.651668,184.722257 C47.8961162,185.7681 50.1141245,187.754025 52.3076515,190.681992 C54.5011784,193.609959 56.1071535,196.275485 57.1275353,198.680531 L58.6571286,202.2881 C59.9830373,206.260929 62.2274855,209.476797 65.3894938,211.933743 C68.5515021,214.390689 71.9690954,215.959452 75.6412946,216.639054 C79.3134938,217.318656 82.85839,217.684896 86.2750041,217.736797 C89.6916183,217.788697 92.522639,217.606556 94.7670871,217.187436 L98.2865228,216.559734 C98.2865228,220.532564 98.3119834,225.185975 98.3629046,230.518988 C98.4138257,235.852 98.4392863,238.674207 98.4392863,238.988548 C98.4392863,240.870672 97.776332,242.439436 96.4504232,243.693859 C95.1245145,244.948282 93.083751,245.314523 90.3300913,244.791602 C66.6644813,236.740183 47.3604647,222.232548 32.416083,201.268697 C17.4717012,180.304846 10,156.697992 10,130.453029 C10,108.600017 15.2536929,88.4460083 25.7600996,69.9910041 C36.2665062,51.536 50.5214938,36.9245643 68.5260415,26.1547386 C86.5305892,15.3849129 106.191054,10 127.510373,10 C148.829693,10 168.491137,15.3849129 186.494705,26.1547386 C204.498274,36.9245643 218.754241,51.5369793 229.260647,69.9919834 C239.767054,88.4469876 245.020747,108.600017 245.020747,130.453029 Z"/>
  </g>
</svg>


<svg id="instagram" width="256" height="256" viewbox="0 0 256 256">
  <g>
    <path d="M219.265625,209.432292 L219.265625,109.869792 L198.523438,109.869792 C200.572049,116.322917 201.596354,123.032118 201.596354,129.997396 C201.596354,142.903646 198.318576,154.811198 191.763021,165.720052 C185.207465,176.628906 176.296007,185.258681 165.028646,191.609375 C153.761285,197.960069 141.469618,201.135417 128.153646,201.135417 C107.974826,201.135417 90.7152778,194.195747 76.375,180.316406 C62.0347222,166.437066 54.8645833,149.664062 54.8645833,129.997396 C54.8645833,123.032118 55.8888889,116.322917 57.9375,109.869792 L36.2734375,109.869792 L36.2734375,209.432292 C36.2734375,212.095486 37.1697049,214.323351 38.9622396,216.115885 C40.7547743,217.90842 42.9826389,218.804687 45.6458333,218.804687 L209.893229,218.804687 C212.453993,218.804687 214.65625,217.90842 216.5,216.115885 C218.34375,214.323351 219.265625,212.095486 219.265625,209.432292 Z M175.630208,127.539063 C175.630208,114.837674 170.995226,104.005642 161.72526,95.0429688 C152.455295,86.0802951 141.264757,81.5989583 128.153646,81.5989583 C115.144965,81.5989583 104.005642,86.0802951 94.7356771,95.0429688 C85.4657118,104.005642 80.8307292,114.837674 80.8307292,127.539063 C80.8307292,140.240451 85.4657118,151.072483 94.7356771,160.035156 C104.005642,168.99783 115.144965,173.479167 128.153646,173.479167 C141.264757,173.479167 152.455295,168.99783 161.72526,160.035156 C170.995226,151.072483 175.630208,140.240451 175.630208,127.539063 Z M219.265625,72.2265625 L219.265625,46.875 C219.265625,44.0069444 218.241319,41.5230035 216.192708,39.4231771 C214.144097,37.3233507 211.634549,36.2734375 208.664062,36.2734375 L181.929688,36.2734375 C178.959201,36.2734375 176.449653,37.3233507 174.401042,39.4231771 C172.352431,41.5230035 171.328125,44.0069444 171.328125,46.875 L171.328125,72.2265625 C171.328125,75.1970486 172.352431,77.7065972 174.401042,79.7552083 C176.449653,81.8038194 178.959201,82.828125 181.929688,82.828125 L208.664062,82.828125 C211.634549,82.828125 214.144097,81.8038194 216.192708,79.7552083 C218.241319,77.7065972 219.265625,75.1970486 219.265625,72.2265625 Z M246,40.2682292 L246,215.731771 C246,224.028646 243.029514,231.147569 237.088542,237.088542 C231.147569,243.029514 224.028646,246 215.731771,246 L40.2682292,246 C31.9713542,246 24.8524306,243.029514 18.9114583,237.088542 C12.9704861,231.147569 10,224.028646 10,215.731771 L10,40.2682292 C10,31.9713542 12.9704861,24.8524306 18.9114583,18.9114583 C24.8524306,12.9704861 31.9713542,10 40.2682292,10 L215.731771,10 C224.028646,10 231.147569,12.9704861 237.088542,18.9114583 C243.029514,24.8524306 246,31.9713542 246,40.2682292 Z"/>
  </g>
</svg>


<svg id="menu" width="256" height="256" viewbox="0 0 256 256">
  <g>
    <path d="M246,197.166667 L246,216.833333 C246,219.496528 245.02691,221.801215 243.080729,223.747396 C241.134549,225.693576 238.829861,226.666667 236.166667,226.666667 L19.8333333,226.666667 C17.1701389,226.666667 14.8654514,225.693576 12.9192708,223.747396 C10.9730903,221.801215 10,219.496528 10,216.833333 L10,197.166667 C10,194.503472 10.9730903,192.198785 12.9192708,190.252604 C14.8654514,188.306424 17.1701389,187.333333 19.8333333,187.333333 L236.166667,187.333333 C238.829861,187.333333 241.134549,188.306424 243.080729,190.252604 C245.02691,192.198785 246,194.503472 246,197.166667 Z M246,118.5 L246,138.166667 C246,140.829861 245.02691,143.134549 243.080729,145.080729 C241.134549,147.02691 238.829861,148 236.166667,148 L19.8333333,148 C17.1701389,148 14.8654514,147.02691 12.9192708,145.080729 C10.9730903,143.134549 10,140.829861 10,138.166667 L10,118.5 C10,115.836806 10.9730903,113.532118 12.9192708,111.585938 C14.8654514,109.639757 17.1701389,108.666667 19.8333333,108.666667 L236.166667,108.666667 C238.829861,108.666667 241.134549,109.639757 243.080729,111.585938 C245.02691,113.532118 246,115.836806 246,118.5 Z M246,39.8333333 L246,59.5 C246,62.1631944 245.02691,64.4678819 243.080729,66.4140625 C241.134549,68.3602431 238.829861,69.3333333 236.166667,69.3333333 L19.8333333,69.3333333 C17.1701389,69.3333333 14.8654514,68.3602431 12.9192708,66.4140625 C10.9730903,64.4678819 10,62.1631944 10,59.5 L10,39.8333333 C10,37.1701389 10.9730903,34.8654514 12.9192708,32.9192708 C14.8654514,30.9730903 17.1701389,30 19.8333333,30 L236.166667,30 C238.829861,30 241.134549,30.9730903 243.080729,32.9192708 C245.02691,34.8654514 246,37.1701389 246,39.8333333 Z" id="Shape"/>
  </g>
</svg>


<svg id="search" width="256" height="256" viewbox="0 0 256 256">
  <g>
    <path d="M240.698218,209.667105 L184.255946,153.224833 C192.769898,139.230958 197.671022,122.828531 197.671022,105.249835 C197.671022,54.2221374 153.439549,10 102.402516,10 C51.3748181,10 10,51.3748181 10,102.402516 C10,153.439549 54.212802,197.671022 105.249835,197.671022 C122.221726,197.671022 138.110701,193.068633 151.777834,185.077468 L208.518842,241.837146 C214.092119,247.391753 223.08218,247.391753 228.627451,241.837146 L242.714681,227.768588 C248.259952,222.213981 246.24349,215.221712 240.698218,209.67644 L240.698218,209.667105 Z M38.4358519,102.39318 C38.4358519,67.0677488 67.0677488,38.417181 102.39318,38.417181 C137.737282,38.417181 169.216499,69.9057327 169.216499,105.2405 C169.216499,140.575266 140.584602,169.216499 105.2405,169.216499 C69.8963973,169.216499 38.4265165,137.727947 38.4265165,102.39318 L38.4358519,102.39318 Z" id="Shape"/>
  </g>
</svg>


<svg id="twitter" width="256" height="256" viewbox="0 0 256 256">
  <g>
    <path d="M246,54.7614213 C239.311337,64.5448393 231.225042,72.8807107 221.741117,79.7690355 C221.840948,81.1666667 221.890863,83.2631134 221.890863,86.0583756 C221.890863,99.036379 219.994078,111.989425 216.200508,124.917513 C212.406937,137.845601 206.641709,150.249577 198.904822,162.129442 C191.167936,174.009306 181.958545,184.516497 171.27665,193.651015 C160.594755,202.785533 147.716582,210.073181 132.642132,215.513959 C117.567682,220.954738 101.445008,223.675127 84.2741117,223.675127 C57.2199662,223.675127 32.4619289,216.437394 10,201.961929 C13.4940778,202.361252 17.3874788,202.560914 21.680203,202.560914 C44.142132,202.560914 64.1582064,195.672589 81.7284264,181.895939 C71.2461929,181.696277 61.8620981,178.476734 53.5761421,172.23731 C45.2901861,165.997885 39.5998308,158.036379 36.5050761,148.352792 C39.7994924,148.851946 42.8443316,149.101523 45.6395939,149.101523 C49.9323181,149.101523 54.1751269,148.552453 58.3680203,147.454315 C47.1869712,145.158206 37.927665,139.59264 30.5901015,130.757614 C23.2525381,121.922589 19.5837563,111.664975 19.5837563,99.9847716 L19.5837563,99.3857868 C26.3722504,103.179357 33.6598985,105.225888 41.4467005,105.525381 C34.857868,101.132826 29.6167513,95.392555 25.7233503,88.3045685 C21.8299492,81.2165821 19.8832487,73.5296108 19.8832487,65.2436548 C19.8832487,56.4585448 22.0795262,48.322335 26.4720812,40.8350254 C38.5516074,55.7098139 53.251692,67.6146362 70.572335,76.5494924 C87.892978,85.4843486 106.436548,90.4509306 126.203046,91.4492386 C125.404399,87.6556684 125.005076,83.9619289 125.005076,80.3680203 C125.005076,66.9906937 129.722081,55.5850254 139.156091,46.1510152 C148.590102,36.7170051 159.99577,32 173.373096,32 C187.349408,32 199.129442,37.0913706 208.713198,47.2741117 C219.594755,45.177665 229.827411,41.284264 239.411168,35.5939086 C235.717428,47.0744501 228.629442,55.9593909 218.147208,62.248731 C227.431472,61.250423 236.715736,58.7546531 246,54.7614213 Z"/>
  </g>
</svg>


<svg id="usd" width="256" height="256" viewbox="0 0 256 256">
  <g>
    <path d="M189.745026,166.060268 C189.745026,179.493304 185.381782,191.06064 176.655293,200.762277 C167.928804,210.463914 156.593139,216.456101 142.648298,218.738839 L142.648298,241.785714 C142.648298,243.014881 142.253632,244.024554 141.464302,244.814732 C140.674971,245.604911 139.666382,246 138.438534,246 L120.678595,246 C119.538451,246 118.551787,245.582961 117.718605,244.748884 C116.885423,243.914807 116.468831,242.927083 116.468831,241.785714 L116.468831,218.738839 C110.680407,217.948661 105.089315,216.587798 99.6955553,214.65625 C94.3017959,212.724702 89.8508481,210.771205 86.3427119,208.795759 C82.8345757,206.820313 79.5895497,204.71317 76.6076339,202.47433 C73.6257182,200.235491 71.586614,198.589286 70.4903214,197.535714 C69.3940289,196.482143 68.6266241,195.691964 68.1881071,195.165179 C66.6971492,193.321429 66.6094458,191.521577 67.9249968,189.765625 L81.4751729,171.986607 C82.0890967,171.108631 83.0976859,170.581845 84.5009404,170.40625 C85.8164914,170.230655 86.8689323,170.625744 87.6582629,171.591518 L87.9213732,171.854911 C97.8318579,180.546875 108.487822,186.034226 119.889264,188.316964 C123.13429,189.019345 126.379316,189.370536 129.624342,189.370536 C136.728318,189.370536 142.977186,187.482887 148.370945,183.707589 C153.764704,179.932292 156.461584,174.576637 156.461584,167.640625 C156.461584,165.182292 155.803809,162.855655 154.488257,160.660714 C153.172706,158.465774 151.703674,156.622024 150.081161,155.129464 C148.458648,153.636905 145.893324,151.990699 142.385188,150.190848 C138.877051,148.390997 135.982839,146.986235 133.70255,145.976563 C131.422262,144.96689 127.914126,143.540179 123.178142,141.696429 C119.757709,140.291667 117.060829,139.194196 115.087503,138.404018 C113.114176,137.613839 110.417296,136.450521 106.996864,134.914063 C103.576431,133.377604 100.8357,132.016741 98.7746695,130.831473 C96.7136395,129.646205 94.2360183,128.087798 91.3418059,126.15625 C88.4475936,124.224702 86.1015275,122.359003 84.3036077,120.559152 C82.5056879,118.759301 80.5981388,116.608259 78.5809605,114.106027 C76.5637822,111.603795 75.0070468,109.057664 73.9107542,106.467634 C72.8144617,103.877604 71.8935759,100.958333 71.148097,97.7098214 C70.402618,94.4613095 70.0298786,91.0372024 70.0298786,87.4375 C70.0298786,75.3214286 74.3273454,64.6979167 82.9222791,55.5669643 C91.5172128,46.4360119 102.699397,40.5535714 116.468831,37.9196429 L116.468831,14.2142857 C116.468831,13.0729167 116.885423,12.0851935 117.718605,11.2511161 C118.551787,10.4170387 119.538451,10 120.678595,10 L138.438534,10 C139.666382,10 140.674971,10.3950893 141.464302,11.1852679 C142.253632,11.9754464 142.648298,12.985119 142.648298,14.2142857 L142.648298,37.3928571 C147.647392,37.9196429 152.493005,38.9293155 157.185137,40.421875 C161.877269,41.9144345 165.692367,43.3850446 168.630431,44.8337054 C171.568496,46.2823661 174.353079,47.9285714 176.984181,49.7723214 C179.615283,51.6160714 181.325499,52.8891369 182.11483,53.5915179 C182.904161,54.2938988 183.561936,54.9084821 184.088157,55.4352679 C185.579114,57.015625 185.798373,58.6837798 184.745932,60.4397321 L174.089968,79.6674107 C173.388341,80.984375 172.379752,81.686756 171.064201,81.7745536 C169.836353,82.0379464 168.652357,81.7306548 167.512213,80.8526786 C167.249103,80.5892857 166.613253,80.0625 165.604664,79.2723214 C164.596075,78.4821429 162.885858,77.3188244 160.474015,75.7823661 C158.062171,74.2459077 155.496847,72.8411458 152.778041,71.5680804 C150.059235,70.2950149 146.792284,69.1536458 142.977186,68.1439732 C139.162087,67.1343006 135.412767,66.6294643 131.729224,66.6294643 C123.3974,66.6294643 116.600387,68.5171131 111.338182,72.2924107 C106.075978,76.0677083 103.444876,80.9404762 103.444876,86.9107143 C103.444876,89.1934524 103.817615,91.3005952 104.563094,93.2321429 C105.308573,95.1636905 106.602198,96.9854911 108.44397,98.6975446 C110.285741,100.409598 112.017884,101.858259 113.640397,103.043527 C115.26291,104.228795 117.718605,105.589658 121.007483,107.126116 C124.29636,108.662574 126.949388,109.847842 128.966567,110.68192 C130.983745,111.515997 134.053364,112.723214 138.175424,114.303571 C142.823705,116.059524 146.375692,117.442336 148.831388,118.452009 C151.287083,119.461682 154.619813,120.99814 158.829576,123.061384 C163.039339,125.124628 166.350143,126.990327 168.761987,128.658482 C171.17383,130.326637 173.892636,132.521577 176.918403,135.243304 C179.944171,137.96503 182.268311,140.752604 183.890824,143.606027 C185.513337,146.459449 186.894666,149.817708 188.03481,153.680804 C189.174954,157.543899 189.745026,161.670387 189.745026,166.060268 Z" id="Shape"/>
  </g>
</svg>


<svg id="youtube" width="256" height="256" viewbox="0 0 256 256">
  <g>
    <path d="M178.571429,128.285714 C178.571429,125.037202 177.254464,122.666667 174.620536,121.174107 L107.191964,79.03125 C104.470238,77.2752976 101.616815,77.1875 98.6316964,78.7678571 C95.734375,80.3482143 94.2857143,82.8065476 94.2857143,86.1428571 L94.2857143,170.428571 C94.2857143,173.764881 95.734375,176.223214 98.6316964,177.803571 C100.036458,178.505952 101.397321,178.857143 102.714286,178.857143 C104.470238,178.857143 105.962798,178.418155 107.191964,177.540179 L174.620536,135.397321 C177.254464,133.904762 178.571429,131.534226 178.571429,128.285714 Z M246,128.285714 C246,136.714286 245.956101,143.299107 245.868304,148.040179 C245.780506,152.78125 245.407366,158.773438 244.748884,166.016741 C244.090402,173.260045 243.102679,179.735119 241.785714,185.441964 C240.380952,191.85119 237.351935,197.250744 232.698661,201.640625 C228.045387,206.030506 222.601935,208.576637 216.368304,209.279018 C196.877232,211.473958 167.421131,212.571429 128,212.571429 C88.578869,212.571429 59.1227679,211.473958 39.6316964,209.279018 C33.3980655,208.576637 27.9326637,206.030506 23.2354911,201.640625 C18.5383185,197.250744 15.4873512,191.85119 14.0825893,185.441964 C12.8534226,179.735119 11.9095982,173.260045 11.2511161,166.016741 C10.5926339,158.773438 10.219494,152.78125 10.1316964,148.040179 C10.0438988,143.299107 10,136.714286 10,128.285714 C10,119.857143 10.0438988,113.272321 10.1316964,108.53125 C10.219494,103.790179 10.5926339,97.7979911 11.2511161,90.5546875 C11.9095982,83.3113839 12.8973214,76.8363095 14.2142857,71.1294643 C15.6190476,64.7202381 18.6480655,59.3206845 23.3013393,54.9308036 C27.9546131,50.5409226 33.3980655,47.9947917 39.6316964,47.2924107 C59.1227679,45.0974702 88.578869,44 128,44 C167.421131,44 196.877232,45.0974702 216.368304,47.2924107 C222.601935,47.9947917 228.067336,50.5409226 232.764509,54.9308036 C237.461682,59.3206845 240.512649,64.7202381 241.917411,71.1294643 C243.146577,76.8363095 244.090402,83.3113839 244.748884,90.5546875 C245.407366,97.7979911 245.780506,103.790179 245.868304,108.53125 C245.956101,113.272321 246,119.857143 246,128.285714 Z"/>
  </g>
</svg></svg>